<?xml version="1.0" encoding="UTF-8" standalone="no"?>
<!DOCTYPE svg PUBLIC "-//W3C//DTD SVG 1.1//EN"
 "http://www.w3.org/Graphics/SVG/1.1/DTD/svg11.dtd">
<!-- Generated by graphviz version 14.0.4 (20251115.1723)
 -->
<!-- Pages: 1 -->
<svg width="1487pt" height="210pt"
 viewBox="0.00 0.00 1487.00 210.00" xmlns="http://www.w3.org/2000/svg" xmlns:xlink="http://www.w3.org/1999/xlink">
<g id="graph0" class="graph" transform="scale(1 1) rotate(0) translate(4 205.98)">
<polygon fill="white" stroke="none" points="-4,4 -4,-205.98 1483.07,-205.98 1483.07,4 -4,4"/>
<!-- root -->
<g id="node1" class="node">
<title>root</title>
<ellipse fill="none" stroke="black" cx="734.65" cy="-183.98" rx="70.8" ry="18"/>
<text xml:space="preserve" text-anchor="middle" x="734.65" y="-178.93" font-family="Times,serif" font-size="14.00">Pricing Strategy</text>
</g>
<!-- low_s -->
<g id="node2" class="node">
<title>low_s</title>
<ellipse fill="none" stroke="black" cx="321.65" cy="-111.98" rx="82.57" ry="18"/>
<text xml:space="preserve" text-anchor="middle" x="321.65" y="-106.93" font-family="Times,serif" font-size="14.00">Low Price Strategy</text>
</g>
<!-- root&#45;&gt;low_s -->
<g id="edge1" class="edge">
<title>root&#45;&gt;low_s</title>
<path fill="none" stroke="black" d="M676.79,-173.18C603.43,-160.74 476.82,-139.28 396.27,-125.63"/>
<polygon fill="black" stroke="black" points="397.15,-122.23 386.71,-124.01 395.98,-129.13 397.15,-122.23"/>
</g>
<!-- mid_s -->
<g id="node3" class="node">
<title>mid_s</title>
<ellipse fill="none" stroke="black" cx="734.65" cy="-111.98" rx="81.55" ry="18"/>
<text xml:space="preserve" text-anchor="middle" x="734.65" y="-106.93" font-family="Times,serif" font-size="14.00">Mid Price Strategy</text>
</g>
<!-- root&#45;&gt;mid_s -->
<g id="edge2" class="edge">
<title>root&#45;&gt;mid_s</title>
<path fill="none" stroke="black" d="M734.65,-165.68C734.65,-158.39 734.65,-149.71 734.65,-141.52"/>
<polygon fill="black" stroke="black" points="738.15,-141.6 734.65,-131.6 731.15,-141.6 738.15,-141.6"/>
</g>
<!-- high_s -->
<g id="node4" class="node">
<title>high_s</title>
<ellipse fill="none" stroke="black" cx="1150.65" cy="-111.98" rx="84.11" ry="18"/>
<text xml:space="preserve" text-anchor="middle" x="1150.65" y="-106.93" font-family="Times,serif" font-size="14.00">High Price Strategy</text>
</g>
<!-- root&#45;&gt;high_s -->
<g id="edge3" class="edge">
<title>root&#45;&gt;high_s</title>
<path fill="none" stroke="black" d="M792.49,-173.25C866.16,-160.85 993.64,-139.4 1074.97,-125.72"/>
<polygon fill="black" stroke="black" points="1075.35,-129.2 1084.64,-124.09 1074.19,-122.3 1075.35,-129.2"/>
</g>
<!-- low_Low demand -->
<g id="node5" class="node">
<title>low_Low demand</title>
<ellipse fill="none" stroke="black" cx="69.65" cy="-28.99" rx="69.65" ry="28.99"/>
<text xml:space="preserve" text-anchor="middle" x="69.65" y="-32.19" font-family="Times,serif" font-size="14.00">Low demand</text>
<text xml:space="preserve" text-anchor="middle" x="69.65" y="-15.69" font-family="Times,serif" font-size="14.00">Payoff = 111.1</text>
</g>
<!-- low_s&#45;&gt;low_Low demand -->
<g id="edge4" class="edge">
<title>low_s&#45;&gt;low_Low demand</title>
<path fill="none" stroke="black" d="M273.74,-96.91C238.92,-86.54 190.71,-71.87 148.65,-57.98 143.26,-56.2 137.68,-54.32 132.09,-52.4"/>
<polygon fill="black" stroke="black" points="133.41,-49.15 122.81,-49.18 131.11,-55.76 133.41,-49.15"/>
</g>
<!-- low_Medium demand -->
<g id="node6" class="node">
<title>low_Medium demand</title>
<ellipse fill="none" stroke="black" cx="235.65" cy="-28.99" rx="78.14" ry="28.99"/>
<text xml:space="preserve" text-anchor="middle" x="235.65" y="-32.19" font-family="Times,serif" font-size="14.00">Medium demand</text>
<text xml:space="preserve" text-anchor="middle" x="235.65" y="-15.69" font-family="Times,serif" font-size="14.00">Payoff = 741.2</text>
</g>
<!-- low_s&#45;&gt;low_Medium demand -->
<g id="edge5" class="edge">
<title>low_s&#45;&gt;low_Medium demand</title>
<path fill="none" stroke="black" d="M303.83,-94.2C294.58,-85.49 282.92,-74.51 271.88,-64.11"/>
<polygon fill="black" stroke="black" points="274.39,-61.66 264.71,-57.36 269.59,-66.76 274.39,-61.66"/>
</g>
<!-- low_High demand -->
<g id="node7" class="node">
<title>low_High demand</title>
<ellipse fill="none" stroke="black" cx="406.65" cy="-28.99" rx="74.42" ry="28.99"/>
<text xml:space="preserve" text-anchor="middle" x="406.65" y="-32.19" font-family="Times,serif" font-size="14.00">High demand</text>
<text xml:space="preserve" text-anchor="middle" x="406.65" y="-15.69" font-family="Times,serif" font-size="14.00">Payoff = 1933.3</text>
</g>
<!-- low_s&#45;&gt;low_High demand -->
<g id="edge6" class="edge">
<title>low_s&#45;&gt;low_High demand</title>
<path fill="none" stroke="black" d="M339.26,-94.2C348.41,-85.49 359.93,-74.51 370.84,-64.11"/>
<polygon fill="black" stroke="black" points="373.1,-66.79 377.92,-57.36 368.27,-61.73 373.1,-66.79"/>
</g>
<!-- mid_Low demand -->
<g id="node8" class="node">
<title>mid_Low demand</title>
<ellipse fill="none" stroke="black" cx="568.65" cy="-28.99" rx="69.65" ry="28.99"/>
<text xml:space="preserve" text-anchor="middle" x="568.65" y="-32.19" font-family="Times,serif" font-size="14.00">Low demand</text>
<text xml:space="preserve" text-anchor="middle" x="568.65" y="-15.69" font-family="Times,serif" font-size="14.00">Payoff = 183.1</text>
</g>
<!-- mid_s&#45;&gt;mid_Low demand -->
<g id="edge7" class="edge">
<title>mid_s&#45;&gt;mid_Low demand</title>
<path fill="none" stroke="black" d="M702.25,-95.17C679.84,-84.24 649.48,-69.43 623.36,-56.69"/>
<polygon fill="black" stroke="black" points="625.1,-53.64 614.57,-52.4 622.03,-59.93 625.1,-53.64"/>
</g>
<!-- mid_Medium demand -->
<g id="node9" class="node">
<title>mid_Medium demand</title>
<ellipse fill="none" stroke="black" cx="734.65" cy="-28.99" rx="78.14" ry="28.99"/>
<text xml:space="preserve" text-anchor="middle" x="734.65" y="-32.19" font-family="Times,serif" font-size="14.00">Medium demand</text>
<text xml:space="preserve" text-anchor="middle" x="734.65" y="-15.69" font-family="Times,serif" font-size="14.00">Payoff = 1221.8</text>
</g>
<!-- mid_s&#45;&gt;mid_Medium demand -->
<g id="edge8" class="edge">
<title>mid_s&#45;&gt;mid_Medium demand</title>
<path fill="none" stroke="black" d="M734.65,-93.81C734.65,-86.72 734.65,-78.19 734.65,-69.7"/>
<polygon fill="black" stroke="black" points="738.15,-69.81 734.65,-59.81 731.15,-69.81 738.15,-69.81"/>
</g>
<!-- mid_High demand -->
<g id="node10" class="node">
<title>mid_High demand</title>
<ellipse fill="none" stroke="black" cx="905.65" cy="-28.99" rx="74.42" ry="28.99"/>
<text xml:space="preserve" text-anchor="middle" x="905.65" y="-32.19" font-family="Times,serif" font-size="14.00">High demand</text>
<text xml:space="preserve" text-anchor="middle" x="905.65" y="-15.69" font-family="Times,serif" font-size="14.00">Payoff = 3186.8</text>
</g>
<!-- mid_s&#45;&gt;mid_High demand -->
<g id="edge9" class="edge">
<title>mid_s&#45;&gt;mid_High demand</title>
<path fill="none" stroke="black" d="M768.03,-95.17C791.04,-84.28 822.19,-69.52 849.04,-56.8"/>
<polygon fill="black" stroke="black" points="850.19,-60.13 857.73,-52.69 847.19,-53.81 850.19,-60.13"/>
</g>
<!-- high_Low demand -->
<g id="node11" class="node">
<title>high_Low demand</title>
<ellipse fill="none" stroke="black" cx="1067.65" cy="-28.99" rx="69.65" ry="28.99"/>
<text xml:space="preserve" text-anchor="middle" x="1067.65" y="-32.19" font-family="Times,serif" font-size="14.00">Low demand</text>
<text xml:space="preserve" text-anchor="middle" x="1067.65" y="-15.69" font-family="Times,serif" font-size="14.00">Payoff = 295.4</text>
</g>
<!-- high_s&#45;&gt;high_Low demand -->
<g id="edge10" class="edge">
<title>high_s&#45;&gt;high_Low demand</title>
<path fill="none" stroke="black" d="M1133.45,-94.2C1124.45,-85.41 1113.08,-74.33 1102.35,-63.85"/>
<polygon fill="black" stroke="black" points="1104.99,-61.54 1095.39,-57.06 1100.1,-66.55 1104.99,-61.54"/>
</g>
<!-- high_Medium demand -->
<g id="node12" class="node">
<title>high_Medium demand</title>
<ellipse fill="none" stroke="black" cx="1233.65" cy="-28.99" rx="78.14" ry="28.99"/>
<text xml:space="preserve" text-anchor="middle" x="1233.65" y="-32.19" font-family="Times,serif" font-size="14.00">Medium demand</text>
<text xml:space="preserve" text-anchor="middle" x="1233.65" y="-15.69" font-family="Times,serif" font-size="14.00">Payoff = 1971.1</text>
</g>
<!-- high_s&#45;&gt;high_Medium demand -->
<g id="edge11" class="edge">
<title>high_s&#45;&gt;high_Medium demand</title>
<path fill="none" stroke="black" d="M1167.85,-94.2C1176.7,-85.56 1187.83,-74.7 1198.41,-64.38"/>
<polygon fill="black" stroke="black" points="1200.55,-67.18 1205.26,-57.69 1195.66,-62.17 1200.55,-67.18"/>
</g>
<!-- high_High demand -->
<g id="node13" class="node">
<title>high_High demand</title>
<ellipse fill="none" stroke="black" cx="1404.65" cy="-28.99" rx="74.42" ry="28.99"/>
<text xml:space="preserve" text-anchor="middle" x="1404.65" y="-32.19" font-family="Times,serif" font-size="14.00">High demand</text>
<text xml:space="preserve" text-anchor="middle" x="1404.65" y="-15.69" font-family="Times,serif" font-size="14.00">Payoff = 5141.4</text>
</g>
<!-- high_s&#45;&gt;high_High demand -->
<g id="edge12" class="edge">
<title>high_s&#45;&gt;high_High demand</title>
<path fill="none" stroke="black" d="M1197.63,-96.6C1231.81,-86.08 1279.16,-71.36 1320.65,-57.98 1326.41,-56.13 1332.39,-54.18 1338.37,-52.21"/>
<polygon fill="black" stroke="black" points="1339.29,-55.59 1347.69,-49.14 1337.09,-48.95 1339.29,-55.59"/>
</g>
</g>
</svg>
